<svg xmlns="http://www.w3.org/2000/svg" xmlns:xlink="http://www.w3.org/1999/xlink" width="252.711" height="230.86" version="1.1" viewBox="0 0 252.711 230.86"><title>Group</title><g id="Page-1" fill="none" fill-rule="evenodd" stroke="none" stroke-width="1"><g id="Logo-explicado" fill-rule="nonzero" transform="translate(-319, -77)"><g id="Group" transform="translate(319, 77)"><path id="Path" fill="#FF9C1A" d="M135.855885,133.436608 C135.855885,144.487826 139.512301,159.283672 151.395655,171.156882 C170.591843,190.336682 196.643811,190.336682 213.280507,181.294776 C233.665029,170.243558 279.370237,137.181236 231.836821,0 C231.836821,64.754658 135.855885,71.3305894 135.855885,133.436608 Z"/><path id="Path" fill="#0DA9FF" d="M179.557778,56.7292913 C176.467619,39.7379094 171.377947,22.3811214 163.834325,0 C163.834325,64.7682247 68.402963,71.3455338 68.402963,133.464565 C68.402963,144.518098 72.0384434,159.317044 83.8537549,171.192741 C102.940027,190.376559 129.115487,190.285207 145.384262,181.332759 C107.393491,140.681334 120.753881,93.5439522 179.557778,56.7292913 Z"/><path id="Path" fill="#00A443" d="M111.154815,56.6208768 C108.064656,39.6619668 102.974984,22.3383491 95.4313619,0 C95.4313619,64.6444471 1.13686838e-13,71.2091864 1.13686838e-13,133.209502 C1.13686838e-13,165.030253 25.6301372,178.980324 25.6301372,178.980324 C25.6301372,178.980324 19.2680464,202.321619 23.1761879,230.86 L35.4459344,228.854107 C29.4473917,207.974589 33.1737591,185.180355 33.5373072,182.992109 C49.1698731,189.283318 65.3477611,187.459779 76.9812986,181.077393 C38.9905278,140.503657 52.3509185,93.4563586 111.154815,56.7120537 L111.154815,56.6208768 Z"/></g></g></g></svg>