<?xml version="1.0" encoding="UTF-8"?>
<!-- Generator: Adobe Illustrator 26.1.0, SVG Export Plug-In . SVG Version: 6.00 Build 0)  -->
<svg xmlns="http://www.w3.org/2000/svg" xmlns:xlink="http://www.w3.org/1999/xlink" version="1.1" id="Capa_1" x="0px" y="0px" viewBox="0 0 1920 500" style="enable-background:new 0 0 1920 500;" xml:space="preserve">
<style type="text/css">
	.st0{fill:#191B41;}
</style>
<g>
	<path class="st0" d="M21,435.7c-6.7,9-21,4.2-21-7v-209l0,0V11.1C0,5,5,0,11.1,0h275.5c10.3,0,15,13,7.1,19.7L61.8,199   c-5.9,4-3.1,13.3,4.1,13.3h90.7c14.3,0,20.5,15.1,12.8,25.3L21,435.7 M278.2,242.2l-248.5,237c-8.4,7-3.4,20.8,7.5,20.8h249.5   c7.3,0,13.3-6,13.3-13.4V252.5C300,241.1,286.9,235,278.2,242.2"/>
	<path class="st0" d="M1574.1,228c3.3-14.2,9.6-26.6,19.5-37.1c13.3-13.9,29.6-21.6,48.8-22.4c41.7-1.7,68.6,29.8,74,59.4   L1574.1,228L1574.1,228z M1748.8,188.3c-11.2-21.1-27.4-37.2-48.8-47.9c-23.3-11.6-47.9-14.9-73.4-10.7   c-32.7,5.4-58.8,21.9-77.9,49c-20.5,29.1-26.9,61.6-19.8,96.4c8.2,40.2,31.7,68.9,69.1,85.8c24.2,10.9,49.7,13.3,75.8,8.9   c31.2-5.3,56.4-20.9,76.1-45.7c0.6-0.7,1.1-1.5,1.8-2.4c-11.3-8.3-22.3-16.5-33.4-24.7c-1.3,1.6-2.5,3.1-3.7,4.5   c-21.7,25.4-49.1,34-81.6,27.8c-30.6-8-49.7-27.6-58.3-57.8c-0.6-2.1-0.9-4.3-1.4-6.7h190.3c0.1-0.9,0.2-1.5,0.2-2   c-0.1-6.6,0-13.2-0.2-19.9C1762.6,223.7,1757.9,205.4,1748.8,188.3 M1788.1,132.9v234h46.1V175.4h85.8V133h-131.9V132.9z    M756.3,133h-49v118.9l0,0l0,0c0,66.3,52.4,120.1,117.1,120.1c30.5,0,58.3-12,79.2-31.6V367h49V133h-49v119.8   c0,41.7-33,75.5-73.6,75.5c-40.7,0-73.6-33.8-73.6-75.5c0-0.3,0-0.6,0-0.9L756.3,133L756.3,133z M442,366.9h235.9v-42.3H509.5   l168.4-149.3V133H442v42.4h166.2l0,0l0,0L442,324.6V366.9z M1180.9,366.9h49V248l0,0l0,0c0-66.3-52.4-120.1-117.1-120.1   c-30.5,0-58.3,12-79.2,31.6V133h-49v233.9h49V247.1c0-41.7,33-75.5,73.6-75.5c40.7,0,73.6,33.8,73.6,75.5c0,0.3,0,0.6,0,0.9   L1180.9,366.9L1180.9,366.9z M1457.5,43.9v117.3c-21.8-20.6-51.3-33.3-83.7-33.3c-67.4,0-122,54.6-122,122s54.6,122,122,122   c32.4,0,61.9-12.7,83.7-33.3v28.3h47.3v-323L1457.5,43.9L1457.5,43.9z M1378.6,331c-44.7,0-80.9-36.2-80.9-80.9   s36.2-80.9,80.9-80.9s80.9,36.2,80.9,80.9S1423.3,331,1378.6,331z"/>
</g>
</svg>